<svg width="68" height="21" viewBox="0 0 68 21" fill="none" xmlns="http://www.w3.org/2000/svg">
<path d="M2.224 3.438C1.77333 3.438 1.392 3.282 1.08 2.97C0.768 2.658 0.612 2.27667 0.612 1.826C0.612 1.37533 0.768 0.993999 1.08 0.681999C1.392 0.369999 1.77333 0.213999 2.224 0.213999C2.65733 0.213999 3.02133 0.369999 3.316 0.681999C3.628 0.993999 3.784 1.37533 3.784 1.826C3.784 2.27667 3.628 2.658 3.316 2.97C3.02133 3.282 2.65733 3.438 2.224 3.438ZM3.368 5.752V20H1.002V5.752H3.368ZM6.51644 12.85C6.51644 11.3767 6.8111 10.094 7.40044 9.002C7.98977 7.89267 8.80444 7.03467 9.84444 6.428C10.9018 5.82133 12.1064 5.518 13.4584 5.518C15.2091 5.518 16.6478 5.94267 17.7744 6.792C18.9184 7.64133 19.6724 8.82 20.0364 10.328H17.4884C17.2458 9.46133 16.7691 8.77667 16.0584 8.274C15.3651 7.77133 14.4984 7.52 13.4584 7.52C12.1064 7.52 11.0144 7.988 10.1824 8.924C9.35044 9.84267 8.93444 11.1513 8.93444 12.85C8.93444 14.566 9.35044 15.892 10.1824 16.828C11.0144 17.764 12.1064 18.232 13.4584 18.232C14.4984 18.232 15.3651 17.9893 16.0584 17.504C16.7518 17.0187 17.2284 16.3253 17.4884 15.424H20.0364C19.6551 16.88 18.8924 18.05 17.7484 18.934C16.6044 19.8007 15.1744 20.234 13.4584 20.234C12.1064 20.234 10.9018 19.9307 9.84444 19.324C8.80444 18.7173 7.98977 17.8593 7.40044 16.75C6.8111 15.6407 6.51644 14.3407 6.51644 12.85ZM64.4111 20L58.8211 13.708V20H56.4551V0.76H58.8211V12.07L64.3071 5.752H67.6091L60.9011 12.85L67.6351 20H64.4111Z" fill="#303030"/>
<path d="M29.4074 20.234C28.0727 20.234 26.8594 19.9307 25.7674 19.324C24.6927 18.7173 23.8434 17.8593 23.2194 16.75C22.6127 15.6233 22.3094 14.3233 22.3094 12.85C22.3094 11.394 22.6214 10.1113 23.2454 9.002C23.8867 7.87533 24.7534 7.01733 25.8454 6.428C26.9374 5.82133 28.1594 5.518 29.5114 5.518C30.8634 5.518 32.0854 5.82133 33.1774 6.428C34.2694 7.01733 35.1274 7.86667 35.7514 8.976C36.3927 10.0853 36.7134 11.3767 36.7134 12.85C36.7134 14.3233 36.3841 15.6233 35.7254 16.75C35.0841 17.8593 34.2087 18.7173 33.0994 19.324C31.9901 19.9307 30.7594 20.234 29.4074 20.234ZM29.4074 18.154C30.2567 18.154 31.0541 17.9547 31.7994 17.556C32.5447 17.1573 33.1427 16.5593 33.5934 15.762C34.0614 14.9647 34.2954 13.994 34.2954 12.85C34.2954 11.706 34.0701 10.7353 33.6194 9.938C33.1687 9.14067 32.5794 8.55133 31.8514 8.17C31.1234 7.77133 30.3347 7.572 29.4854 7.572C28.6187 7.572 27.8214 7.77133 27.0934 8.17C26.3827 8.55133 25.8107 9.14067 25.3774 9.938C24.9441 10.7353 24.7274 11.706 24.7274 12.85C24.7274 14.0113 24.9354 14.9907 25.3514 15.788C25.7847 16.5853 26.3567 17.1833 27.0674 17.582C27.7781 17.9633 28.5581 18.154 29.4074 18.154ZM46.0383 20.234C44.7036 20.234 43.4903 19.9307 42.3983 19.324C41.3236 18.7173 40.4743 17.8593 39.8503 16.75C39.2436 15.6233 38.9403 14.3233 38.9403 12.85C38.9403 11.394 39.2523 10.1113 39.8763 9.002C40.5176 7.87533 41.3843 7.01733 42.4763 6.428C43.5683 5.82133 44.7903 5.518 46.1423 5.518C47.4943 5.518 48.7163 5.82133 49.8083 6.428C50.9003 7.01733 51.7583 7.86667 52.3823 8.976C53.0236 10.0853 53.3443 11.3767 53.3443 12.85C53.3443 14.3233 53.0149 15.6233 52.3563 16.75C51.7149 17.8593 50.8396 18.7173 49.7303 19.324C48.6209 19.9307 47.3903 20.234 46.0383 20.234ZM46.0383 18.154C46.8876 18.154 47.6849 17.9547 48.4303 17.556C49.1756 17.1573 49.7736 16.5593 50.2243 15.762C50.6923 14.9647 50.9263 13.994 50.9263 12.85C50.9263 11.706 50.7009 10.7353 50.2503 9.938C49.7996 9.14067 49.2103 8.55133 48.4823 8.17C47.7543 7.77133 46.9656 7.572 46.1163 7.572C45.2496 7.572 44.4523 7.77133 43.7243 8.17C43.0136 8.55133 42.4416 9.14067 42.0083 9.938C41.5749 10.7353 41.3583 11.706 41.3583 12.85C41.3583 14.0113 41.5663 14.9907 41.9823 15.788C42.4156 16.5853 42.9876 17.1833 43.6983 17.582C44.4089 17.9633 45.1889 18.154 46.0383 18.154Z" fill="#EA1D2C"/>
</svg>
