<svg width="82" height="43" viewBox="0 0 82 43" fill="none" xmlns="http://www.w3.org/2000/svg">
<path d="M3.51125 12.9624C3.02043 12.9624 2.60512 12.7925 2.26532 12.4527C1.92553 12.1129 1.75563 11.6976 1.75563 11.2067C1.75563 10.7159 1.92553 10.3006 2.26532 9.96081C2.60512 9.62101 3.02043 9.45111 3.51125 9.45111C3.98319 9.45111 4.37963 9.62101 4.70055 9.96081C5.04035 10.3006 5.21024 10.7159 5.21024 11.2067C5.21024 11.6976 5.04035 12.1129 4.70055 12.4527C4.37963 12.7925 3.98319 12.9624 3.51125 12.9624ZM4.75718 15.4825V31H2.18037V15.4825H4.75718ZM7.33664 21.1175C7.33664 19.192 7.77083 17.4647 8.6392 15.9356C9.50757 14.3876 10.6874 13.1795 12.1788 12.3111C13.689 11.4427 15.3597 11.0085 17.1908 11.0085C19.3429 11.0085 21.2212 11.5277 22.8258 12.5659C24.4304 13.6042 25.6008 15.0767 26.337 16.9833H23.2505C22.7031 15.794 21.9102 14.8784 20.8719 14.2366C19.8526 13.5948 18.6255 13.2738 17.1908 13.2738C15.8127 13.2738 14.5762 13.5948 13.4813 14.2366C12.3864 14.8784 11.5275 15.794 10.9045 16.9833C10.2816 18.1537 9.97008 19.5318 9.97008 21.1175C9.97008 22.6844 10.2816 24.0624 10.9045 25.2517C11.5275 26.4222 12.3864 27.3283 13.4813 27.9701C14.5762 28.612 15.8127 28.9329 17.1908 28.9329C18.6255 28.9329 19.8526 28.6214 20.8719 27.9984C21.9102 27.3566 22.7031 26.441 23.2505 25.2517H26.337C25.6008 27.1395 24.4304 28.6025 22.8258 29.6408C21.2212 30.6602 19.3429 31.1699 17.1908 31.1699C15.3597 31.1699 13.689 30.7452 12.1788 29.8957C10.6874 29.0273 9.50757 27.8285 8.6392 26.2995C7.77083 24.7704 7.33664 23.0431 7.33664 21.1175ZM78.1866 31L72.0986 24.1474V31H69.5218V10.0458H72.0986V22.3635L78.0734 15.4825H81.6696L74.3639 23.213L81.6979 31H78.1866Z" fill="#303030"/>
<ellipse cx="35.8382" cy="23.3022" rx="7.81655" ry="8.25899" fill="#EA1D2C"/>
<ellipse cx="59.7302" cy="23.3022" rx="7.81655" ry="8.25899" fill="#EA1D2C"/>
<circle cx="47.9317" cy="29.3489" r="1.91727" fill="#EA1D2C"/>
</svg>
